<svg xmlns="http://www.w3.org/2000/svg" width="375" viewBox="0 0 375 375" height="375" version="1.0"><defs><clipPath id="a"><path d="M 133 100.910156 L 245 100.910156 L 245 137 L 133 137 Z M 133 100.910156"/></clipPath><clipPath id="b"><path d="M 188 262 L 203 262 L 203 274.160156 L 188 274.160156 Z M 188 262"/></clipPath><clipPath id="c"><path d="M 169 262 L 185 262 L 185 274.160156 L 169 274.160156 Z M 169 262"/></clipPath></defs><path fill="#ED5B2D" d="M 24.066406 218.851562 L 17.019531 218.851562 C 13.9375 218.851562 11.746094 221.363281 12.128906 224.449219 C 12.511719 227.546875 15.328125 230.042969 18.421875 230.042969 L 25.46875 230.042969 C 28.550781 230.042969 30.757812 227.53125 30.375 224.449219 C 29.980469 221.363281 27.175781 218.851562 24.082031 218.851562 Z M 24.066406 218.851562" fill-rule="evenodd"/><path fill="#ED5B2D" d="M 45.523438 249.277344 C 42.414062 249.277344 40.234375 251.777344 40.617188 254.875 C 40.988281 257.957031 43.816406 260.46875 46.914062 260.46875 L 53.945312 260.46875 C 57.027344 260.46875 59.234375 257.957031 58.851562 254.875 C 58.457031 251.789062 55.652344 249.277344 52.570312 249.277344 Z M 45.523438 249.277344" fill-rule="evenodd"/><path fill="#ED5B2D" d="M 18.523438 202.636719 C 18.144531 199.542969 15.339844 197.042969 12.242188 197.042969 L 5.183594 197.042969 C 2.101562 197.042969 -0.078125 199.554688 0.304688 202.636719 C 0.675781 205.722656 3.503906 208.234375 6.597656 208.234375 L 13.632812 208.234375 C 16.714844 208.234375 18.917969 205.734375 18.539062 202.636719 Z M 18.523438 202.636719" fill-rule="evenodd"/><path fill="#ED5B2D" d="M 41.511719 184.128906 L 34.476562 184.128906 C 31.382812 184.128906 29.1875 186.628906 29.570312 189.726562 C 29.941406 192.8125 32.769531 195.320312 35.867188 195.320312 L 42.898438 195.320312 C 45.996094 195.320312 48.199219 192.824219 47.804688 189.726562 C 47.421875 186.640625 44.605469 184.128906 41.523438 184.128906 Z M 41.511719 184.128906" fill-rule="evenodd"/><path fill="#ED5B2D" d="M 323.347656 168.746094 C 320.265625 168.746094 318.058594 166.246094 318.441406 163.148438 C 318.835938 160.066406 321.640625 157.554688 324.722656 157.554688 L 331.796875 157.554688 C 334.878906 157.554688 337.070312 160.066406 336.6875 163.148438 C 336.304688 166.234375 333.488281 168.746094 330.394531 168.746094 Z M 323.347656 168.746094" fill-rule="evenodd"/><path fill="#ED5B2D" d="M 350.933594 218.851562 L 357.980469 218.851562 C 361.0625 218.851562 363.253906 221.363281 362.871094 224.449219 C 362.488281 227.546875 359.671875 230.042969 356.578125 230.042969 L 349.53125 230.042969 C 346.449219 230.042969 344.242188 227.53125 344.625 224.449219 C 345.019531 221.363281 347.824219 218.851562 350.917969 218.851562 Z M 350.933594 218.851562" fill-rule="evenodd"/><path fill="#ED5B2D" d="M 329.488281 249.277344 C 332.597656 249.277344 334.777344 251.777344 334.394531 254.875 C 334.023438 257.957031 331.195312 260.46875 328.101562 260.46875 L 321.066406 260.46875 C 317.984375 260.46875 315.78125 257.957031 316.160156 254.875 C 316.554688 251.789062 319.359375 249.277344 322.457031 249.277344 L 329.5 249.277344 Z M 329.488281 249.277344" fill-rule="evenodd"/><path fill="#ED5B2D" d="M 356.488281 202.636719 C 356.871094 199.542969 359.671875 197.042969 362.769531 197.042969 L 369.828125 197.042969 C 372.910156 197.042969 375.089844 199.554688 374.707031 202.636719 C 374.339844 205.722656 371.507812 208.234375 368.414062 208.234375 L 361.378906 208.234375 C 358.296875 208.234375 356.09375 205.734375 356.476562 202.636719 Z M 356.488281 202.636719" fill-rule="evenodd"/><path fill="#ED5B2D" d="M 333.503906 184.128906 L 340.535156 184.128906 C 343.644531 184.128906 345.824219 186.628906 345.441406 189.726562 C 345.070312 192.8125 342.242188 195.320312 339.148438 195.320312 L 332.113281 195.320312 C 329.003906 195.320312 326.8125 192.824219 327.207031 189.726562 C 327.589844 186.640625 330.40625 184.128906 333.503906 184.128906 L 333.515625 184.128906 Z M 333.503906 184.128906" fill-rule="evenodd"/><path fill="#ED5B2D" d="M 51.664062 168.746094 C 54.75 168.746094 56.953125 166.246094 56.570312 163.148438 C 56.175781 160.066406 53.371094 157.554688 50.289062 157.554688 L 43.21875 157.554688 C 40.132812 157.554688 37.941406 160.066406 38.324219 163.148438 C 38.707031 166.234375 41.523438 168.746094 44.617188 168.746094 Z M 51.664062 168.746094" fill-rule="evenodd"/><g clip-path="url(#a)"><path fill="#291B25" d="M 133.375 118.5625 L 143.097656 135.414062 C 143.199219 135.59375 144.269531 135.195312 145.847656 134.433594 L 146.828125 136.140625 C 149.570312 133.984375 152.472656 132.035156 155.53125 130.316406 L 154.894531 129.207031 C 156.359375 128.226562 157.226562 127.5 157.125 127.320312 L 147.378906 110.417969 L 147.363281 110.429688 C 146.917969 110.253906 143.734375 111.742188 140.027344 113.871094 C 136.332031 116.011719 133.453125 118.015625 133.375 118.5 L 133.363281 118.511719 L 133.386719 118.5625 Z M 230.273438 110.417969 L 220.527344 127.320312 C 220.421875 127.5 221.289062 128.226562 222.742188 129.207031 L 222.105469 130.316406 C 225.152344 132.035156 228.066406 133.984375 230.808594 136.140625 L 231.789062 134.433594 C 233.367188 135.195312 234.425781 135.59375 234.539062 135.414062 L 244.289062 118.511719 L 244.273438 118.5 C 244.121094 117.378906 231.34375 110.011719 230.296875 110.417969 L 230.273438 110.40625 Z M 173.585938 102.195312 L 173.585938 118.089844 C 173.585938 118.640625 177.535156 119.097656 183.117188 119.300781 L 183.117188 121.851562 L 194.519531 121.851562 L 194.519531 119.300781 C 200.101562 119.109375 204.050781 118.640625 204.050781 118.089844 L 204.050781 102.195312 L 204.011719 102.195312 C 203.453125 101.484375 196.863281 100.910156 188.824219 100.910156 C 180.785156 100.910156 174.199219 101.484375 173.636719 102.195312 Z M 173.585938 102.195312" fill-rule="evenodd"/></g><path fill="#291B25" d="M 248.9375 203.261719 C 249.5 172.863281 227.914062 147.714844 199.019531 142.234375 L 208.917969 136.753906 L 202 132.585938 C 235.0625 139.390625 259.617188 168.453125 258.980469 203.441406 L 248.9375 203.25 Z M 248.9375 203.261719" fill-rule="evenodd"/><path fill="#291B25" d="M 131.527344 193.972656 L 131.707031 192.886719 L 135.605469 193.523438 L 135.425781 194.609375 Z M 131.527344 193.972656" fill-rule="evenodd"/><path fill="#291B25" d="M 239.433594 211.738281 L 239.613281 210.667969 L 243.511719 211.304688 L 243.332031 212.390625 Z M 239.433594 211.738281" fill-rule="evenodd"/><path fill="#291B25" d="M 135.414062 180.382812 L 135.859375 179.375 L 139.476562 180.957031 L 139.03125 181.964844 Z M 135.414062 180.382812" fill-rule="evenodd"/><path fill="#291B25" d="M 235.558594 224.320312 L 236.007812 223.3125 L 239.625 224.894531 L 239.179688 225.902344 Z M 235.558594 224.320312" fill-rule="evenodd"/><path fill="#291B25" d="M 143.261719 167.242188 L 143.964844 166.402344 L 147.019531 168.886719 L 146.332031 169.738281 Z M 143.261719 167.242188" fill-rule="evenodd"/><path fill="#291B25" d="M 228.015625 236.378906 L 228.707031 235.539062 L 231.777344 238.035156 L 231.074219 238.875 Z M 228.015625 236.378906" fill-rule="evenodd"/><path fill="#291B25" d="M 153.75 157.121094 L 154.640625 156.484375 L 156.960938 159.671875 L 156.078125 160.320312 Z M 153.75 157.121094" fill-rule="evenodd"/><path fill="#291B25" d="M 218.078125 245.59375 L 218.957031 244.957031 L 221.277344 248.15625 L 220.398438 248.792969 Z M 218.078125 245.59375" fill-rule="evenodd"/><path fill="#291B25" d="M 166.539062 149.996094 L 167.96875 153.679688 L 168.988281 153.273438 L 167.558594 149.585938 Z M 166.539062 149.996094" fill-rule="evenodd"/><path fill="#291B25" d="M 206.050781 251.992188 L 207.070312 251.597656 L 208.496094 255.28125 L 207.476562 255.675781 Z M 206.050781 251.992188" fill-rule="evenodd"/><path fill="#291B25" d="M 179.792969 146.492188 L 180.875 146.351562 L 181.371094 150.277344 L 180.289062 150.402344 Z M 179.792969 146.492188" fill-rule="evenodd"/><path fill="#291B25" d="M 193.667969 255 L 194.75 254.859375 L 195.246094 258.785156 L 194.164062 258.925781 Z M 193.667969 255" fill-rule="evenodd"/><path fill="#291B25" d="M 195.933594 146.59375 L 197.019531 146.757812 L 196.394531 150.660156 L 195.324219 150.492188 Z M 195.933594 146.59375" fill-rule="evenodd"/><path fill="#291B25" d="M 178.644531 254.605469 L 179.726562 254.785156 L 179.101562 258.683594 L 178.019531 258.519531 Z M 178.644531 254.605469" fill-rule="evenodd"/><path fill="#291B25" d="M 209.480469 150.390625 L 207.910156 154.023438 L 208.917969 154.457031 L 210.484375 150.824219 Z M 209.480469 150.390625" fill-rule="evenodd"/><path fill="#291B25" d="M 166.121094 250.820312 L 167.113281 251.253906 L 165.558594 254.886719 L 164.554688 254.453125 Z M 166.121094 250.820312" fill-rule="evenodd"/><path fill="#291B25" d="M 222.234375 157.847656 L 219.785156 160.945312 L 220.640625 161.621094 L 223.085938 158.523438 Z M 222.234375 157.847656" fill-rule="evenodd"/><path fill="#291B25" d="M 154.398438 243.65625 L 155.25 244.332031 L 152.804688 247.429688 L 151.953125 246.753906 Z M 154.398438 243.65625" fill-rule="evenodd"/><path fill="#291B25" d="M 239.765625 180.703125 L 236.109375 182.191406 L 236.515625 183.214844 L 240.171875 181.722656 Z M 239.765625 180.703125" fill-rule="evenodd"/><path fill="#291B25" d="M 138.523438 222.0625 L 138.929688 223.082031 L 135.273438 224.574219 L 134.867188 223.554688 Z M 138.523438 222.0625" fill-rule="evenodd"/><path fill="#291B25" d="M 232.746094 168.492188 L 229.558594 170.835938 L 230.207031 171.714844 L 233.394531 169.371094 Z M 232.746094 168.492188" fill-rule="evenodd"/><path fill="#291B25" d="M 144.828125 233.546875 L 145.480469 234.441406 L 142.292969 236.785156 L 141.644531 235.90625 Z M 144.828125 233.546875" fill-rule="evenodd"/><path fill="#291B25" d="M 243.675781 195.117188 L 239.753906 195.601562 L 239.890625 196.6875 L 243.804688 196.203125 Z M 243.675781 195.117188" fill-rule="evenodd"/><path fill="#291B25" d="M 135.144531 208.589844 L 135.285156 209.675781 L 131.363281 210.160156 L 131.234375 209.074219 Z M 135.144531 208.589844" fill-rule="evenodd"/><path fill="#291B25" d="M 172.414062 253.152344 L 173.472656 253.457031 L 172.375 257.257812 L 171.320312 256.953125 Z M 172.414062 253.152344" fill-rule="evenodd"/><path fill="#291B25" d="M 227.929688 162.921875 L 225.085938 165.660156 L 225.851562 166.4375 L 228.691406 163.699219 Z M 227.929688 162.921875" fill-rule="evenodd"/><path fill="#291B25" d="M 242.375 188.453125 L 238.527344 189.40625 L 238.796875 190.464844 L 242.632812 189.511719 Z M 242.375 188.453125" fill-rule="evenodd"/><path fill="#291B25" d="M 136.242188 214.8125 L 136.496094 215.871094 L 132.660156 216.824219 L 132.40625 215.765625 Z M 136.242188 214.8125" fill-rule="evenodd"/><path fill="#291B25" d="M 242.109375 217.78125 L 241.804688 218.839844 L 238.019531 217.742188 L 238.3125 216.699219 Z M 242.109375 217.78125" fill-rule="evenodd"/><path fill="#291B25" d="M 227.226562 243.070312 L 226.4375 243.824219 L 223.699219 240.980469 L 224.488281 240.214844 Z M 227.226562 243.070312" fill-rule="evenodd"/><path fill="#291B25" d="M 201.707031 257.511719 L 200.636719 257.78125 L 199.679688 253.941406 L 200.75 253.675781 Z M 201.707031 257.511719" fill-rule="evenodd"/><path fill="#291B25" d="M 202.664062 148.019531 L 201.566406 151.820312 L 202.625 152.125 L 203.71875 148.324219 Z M 202.664062 148.019531" fill-rule="evenodd"/><path fill="#291B25" d="M 149.1875 238.824219 L 149.953125 239.617188 L 147.109375 242.355469 L 146.34375 241.578125 Z M 149.1875 238.824219" fill-rule="evenodd"/><path fill="#291B25" d="M 137.019531 187.535156 L 136.726562 188.578125 L 132.929688 187.484375 L 133.222656 186.4375 Z M 137.019531 187.535156" fill-rule="evenodd"/><path fill="#291B25" d="M 151.339844 164.296875 L 150.550781 165.050781 L 147.8125 162.207031 L 148.601562 161.453125 Z M 151.339844 164.296875" fill-rule="evenodd"/><path fill="#291B25" d="M 175.359375 151.335938 L 174.289062 151.601562 L 173.332031 147.765625 L 174.402344 147.496094 Z M 175.359375 151.335938" fill-rule="evenodd"/><path fill="#291B25" d="M 233.28125 206.578125 L 244.109375 206.78125 L 244.222656 200.585938 L 233.394531 200.382812 Z M 233.28125 206.578125" fill-rule="evenodd"/><path fill="#291B25" d="M 189.5625 259.359375 L 183.382812 259.246094 L 183.589844 248.410156 L 189.769531 248.527344 Z M 189.5625 259.359375" fill-rule="evenodd"/><path fill="#291B25" d="M 130.8125 204.691406 L 130.929688 198.496094 L 141.757812 198.699219 L 141.644531 204.882812 Z M 130.8125 204.691406" fill-rule="evenodd"/><path fill="#291B25" d="M 191.460938 156.867188 L 191.667969 146.03125 L 186.785156 145.941406 L 194.699219 141.558594 L 204 136.40625 L 185.78125 125.445312 L 185.679688 131.132812 C 181.027344 131.246094 176.480469 131.820312 172.082031 132.789062 L 174.503906 142.539062 C 178.058594 141.773438 181.742188 141.300781 185.5 141.1875 L 185.398438 146.707031 L 185.472656 146.667969 L 185.28125 156.75 Z M 191.460938 156.867188" fill-rule="evenodd"/><path fill="#291B25" d="M 237.421875 175.792969 L 236.769531 174.632812 L 231.089844 177.769531 L 231.738281 178.929688 Z M 237.421875 175.792969" fill-rule="evenodd"/><path fill="#291B25" d="M 230.144531 229.085938 L 230.832031 227.953125 L 236.386719 231.304688 L 235.714844 232.441406 Z M 230.144531 229.085938" fill-rule="evenodd"/><path fill="#291B25" d="M 162.207031 245.964844 L 161.074219 245.277344 L 157.722656 250.847656 L 158.859375 251.535156 Z M 162.207031 245.964844" fill-rule="evenodd"/><path fill="#291B25" d="M 211.210938 246.867188 L 212.371094 246.21875 L 215.519531 251.917969 L 214.359375 252.554688 Z M 211.210938 246.867188" fill-rule="evenodd"/><path fill="#291B25" d="M 143.949219 227.507812 L 143.300781 226.335938 L 137.617188 229.484375 L 138.269531 230.644531 Z M 143.949219 227.507812" fill-rule="evenodd"/><path fill="#291B25" d="M 138.648438 173.972656 L 139.324219 172.835938 L 144.894531 176.175781 L 144.203125 177.324219 Z M 138.648438 173.972656" fill-rule="evenodd"/><path fill="#291B25" d="M 217.316406 154.429688 L 216.179688 153.742188 L 212.828125 159.3125 L 213.964844 159.988281 Z M 217.316406 154.429688" fill-rule="evenodd"/><path fill="#291B25" d="M 258.953125 205.785156 C 258.722656 210.898438 257.972656 215.871094 256.734375 220.648438 L 247.078125 217.871094 C 248.085938 213.933594 248.710938 209.828125 248.914062 205.609375 Z M 258.953125 205.785156" fill-rule="evenodd"/><path fill="#291B25" d="M 255.71875 224.179688 C 254.1875 229.011719 252.160156 233.625 249.703125 237.945312 L 241.089844 232.757812 C 243.117188 229.175781 244.773438 225.378906 246.046875 221.402344 L 255.703125 224.179688 Z M 255.71875 224.179688" fill-rule="evenodd"/><path fill="#291B25" d="M 247.804688 241.109375 L 239.191406 235.917969 C 236.9375 239.414062 234.351562 242.648438 231.457031 245.605469 L 238.425781 252.847656 C 241.945312 249.277344 245.078125 245.351562 247.792969 241.109375 Z M 247.804688 241.109375" fill-rule="evenodd"/><path fill="#291B25" d="M 235.789062 255.394531 L 228.820312 248.15625 C 225.761719 250.933594 222.425781 253.40625 218.855469 255.523438 L 223.722656 264.320312 C 228.054688 261.769531 232.105469 258.773438 235.800781 255.382812 Z M 235.789062 255.394531" fill-rule="evenodd"/><path fill="#291B25" d="M 220.5 266.101562 C 216.089844 268.410156 211.414062 270.257812 206.523438 271.597656 L 204.101562 261.847656 C 208.128906 260.722656 211.988281 259.195312 215.632812 257.308594 L 220.488281 266.101562 Z M 220.5 266.101562" fill-rule="evenodd"/><g clip-path="url(#b)"><path fill="#291B25" d="M 202.957031 272.488281 C 198.140625 273.546875 193.15625 274.132812 188.035156 274.160156 L 188.226562 264.101562 C 192.445312 264.050781 196.558594 263.578125 200.546875 262.726562 L 202.96875 272.476562 Z M 202.957031 272.488281" fill-rule="evenodd"/></g><g clip-path="url(#c)"><path fill="#291B25" d="M 184.367188 274.09375 C 179.257812 273.867188 174.289062 273.113281 169.507812 271.878906 L 172.285156 262.214844 C 176.238281 263.222656 180.328125 263.847656 184.542969 264.050781 L 184.351562 274.09375 Z M 184.367188 274.09375" fill-rule="evenodd"/></g><path fill="#291B25" d="M 165.980469 270.859375 C 161.152344 269.328125 156.539062 267.3125 152.21875 264.855469 L 157.40625 256.25 C 160.984375 258.265625 164.78125 259.933594 168.757812 261.207031 L 165.980469 270.871094 Z M 165.980469 270.859375" fill-rule="evenodd"/><path fill="#291B25" d="M 149.070312 262.953125 L 154.257812 254.339844 C 150.765625 252.082031 147.53125 249.496094 144.574219 246.601562 L 137.351562 253.574219 C 140.90625 257.089844 144.84375 260.226562 149.085938 262.941406 Z M 149.070312 262.953125" fill-rule="evenodd"/><path fill="#291B25" d="M 134.789062 250.921875 L 142.027344 243.949219 C 139.25 240.890625 136.777344 237.550781 134.660156 233.980469 L 125.871094 238.839844 C 128.417969 243.171875 131.414062 247.226562 134.800781 250.921875 Z M 134.789062 250.921875" fill-rule="evenodd"/><path fill="#291B25" d="M 124.085938 235.640625 C 121.78125 231.230469 119.933594 226.550781 118.582031 221.65625 L 128.328125 219.234375 C 129.449219 223.261719 130.980469 227.125 132.867188 230.78125 L 124.074219 235.640625 Z M 124.085938 235.640625" fill-rule="evenodd"/><path fill="#291B25" d="M 117.703125 218.085938 C 116.644531 213.269531 116.058594 208.273438 116.019531 203.160156 L 126.0625 203.339844 C 126.113281 207.558594 126.582031 211.675781 127.4375 215.664062 L 117.691406 218.085938 Z M 117.703125 218.085938" fill-rule="evenodd"/><path fill="#291B25" d="M 116.085938 199.476562 C 116.3125 194.367188 117.066406 189.394531 118.300781 184.613281 L 127.960938 187.394531 C 126.953125 191.34375 126.328125 195.4375 126.125 199.65625 Z M 116.085938 199.476562" fill-rule="evenodd"/><path fill="#291B25" d="M 119.320312 181.085938 C 120.851562 176.253906 122.863281 171.640625 125.335938 167.316406 L 133.9375 172.507812 C 131.921875 176.085938 130.253906 179.886719 128.980469 183.875 L 119.320312 181.097656 Z M 119.320312 181.085938" fill-rule="evenodd"/><path fill="#291B25" d="M 127.234375 164.167969 L 135.847656 169.359375 C 138.101562 165.863281 140.6875 162.628906 143.582031 159.671875 L 136.609375 152.429688 C 133.09375 156 129.949219 159.925781 127.246094 164.167969 Z M 127.234375 164.167969" fill-rule="evenodd"/><path fill="#291B25" d="M 139.25 149.882812 L 146.21875 157.109375 C 149.277344 154.328125 152.613281 151.855469 156.183594 149.742188 L 151.316406 140.945312 C 146.984375 143.496094 142.929688 146.492188 139.25 149.882812 Z M 139.25 149.882812" fill-rule="evenodd"/><path fill="#291B25" d="M 154.539062 139.175781 C 158.945312 136.867188 163.621094 135.019531 168.515625 133.667969 L 170.9375 143.417969 C 166.910156 144.539062 163.050781 146.082031 159.40625 147.957031 L 154.539062 139.160156 Z M 154.539062 139.175781" fill-rule="evenodd"/><path fill="#291B25" d="M 163.953125 181.949219 L 164.144531 181.746094 L 181.550781 195.144531 C 182.621094 194.542969 183.816406 194.238281 185.015625 194.214844 L 195.617188 159.1875 L 195.894531 159.25 L 189.820312 195.871094 C 189.945312 195.984375 190.085938 196.101562 190.214844 196.214844 C 193.195312 199.019531 193.347656 203.695312 190.558594 206.679688 C 189.769531 207.519531 188.835938 208.132812 187.832031 208.527344 L 198.585938 244 L 196.890625 244.511719 L 186.109375 208.960938 C 183.996094 209.242188 181.765625 208.605469 180.085938 207.023438 C 177.675781 204.765625 177.117188 201.289062 178.453125 198.445312 L 163.953125 181.9375 Z M 163.953125 181.949219" fill-rule="evenodd"/><path fill="#ED5B2D" d="M 77.644531 220.214844 L 104.324219 220.214844 C 107.714844 220.214844 110.796875 222.957031 111.21875 226.347656 C 111.625 229.699219 109.242188 232.441406 105.839844 232.441406 L 43.140625 232.441406 C 40.148438 232.441406 38.042969 234.847656 38.425781 237.84375 C 38.796875 240.839844 41.511719 243.25 44.492188 243.25 L 77.492188 243.25 L 77.632812 254.886719 L 132.710938 254.886719 L 131.363281 253.5625 L 131.449219 253.484375 C 128.050781 249.738281 125.03125 245.644531 122.441406 241.296875 L 122.339844 241.351562 L 121.308594 239.375 L 120.085938 237.296875 L 120.1875 237.234375 C 117.867188 232.734375 116.007812 228.003906 114.644531 223.136719 L 114.53125 223.160156 L 114.019531 220.867188 L 113.410156 218.660156 L 113.523438 218.636719 C 112.453125 213.691406 111.894531 208.640625 111.828125 203.570312 L 111.714844 203.570312 L 111.816406 201.261719 L 111.816406 200.546875 L 83.902344 200.726562 L 77.617188 200.765625 L 58.238281 200.890625 C 55.246094 200.890625 53.144531 203.300781 53.511719 206.296875 C 53.882812 209.292969 56.597656 211.703125 59.578125 211.703125 L 77.03125 211.703125 L 77.148438 220.242188 L 77.605469 220.242188 Z M 77.644531 220.214844" fill-rule="evenodd"/><path fill="#ED5B2D" d="M 83.25 187.890625 L 113.308594 187.890625 C 113.574219 186.566406 113.867188 185.253906 114.199219 183.941406 L 114.085938 183.902344 L 114.785156 181.671875 L 115.359375 179.441406 L 115.472656 179.476562 C 116.519531 176.226562 117.78125 173.054688 119.257812 169.96875 L 68.929688 169.96875 C 65.933594 169.96875 63.847656 172.378906 64.214844 175.375 C 64.585938 178.371094 67.296875 180.777344 70.28125 180.777344 L 76.652344 180.777344 L 76.726562 187.890625 Z M 83.25 187.890625" fill-rule="evenodd"/><path fill="#ED5B2D" d="M 84.933594 157.453125 L 126.824219 157.453125 C 128.839844 154.75 131.03125 152.1875 133.375 149.777344 L 133.296875 149.691406 L 134.980469 148.148438 L 136.636719 146.464844 L 136.726562 146.554688 C 137.960938 145.433594 139.222656 144.363281 140.535156 143.328125 L 83.289062 143.328125 C 80.96875 143.328125 78.945312 144.4375 77.671875 146.144531 L 77.65625 157.453125 Z M 84.933594 157.453125" fill-rule="evenodd"/><path fill="#ED5B2D" d="M 234.707031 143.328125 C 239.878906 147.433594 244.492188 152.175781 248.402344 157.453125 L 297.355469 157.453125 L 297.34375 146.144531 C 296.082031 144.4375 294.042969 143.328125 291.722656 143.328125 Z M 234.707031 143.328125" fill-rule="evenodd"/><path fill="#ED5B2D" d="M 292.691406 169.96875 L 255.933594 169.96875 C 258.609375 175.601562 260.597656 181.621094 261.808594 187.878906 L 298.273438 187.878906 L 298.347656 180.765625 L 304.71875 180.765625 C 307.714844 180.765625 310.429688 178.355469 310.785156 175.359375 C 311.152344 172.367188 309.066406 169.957031 306.070312 169.957031 L 292.679688 169.957031 Z M 292.691406 169.96875" fill-rule="evenodd"/><path fill="#ED5B2D" d="M 291.074219 200.714844 L 263.132812 200.535156 C 263.144531 200.929688 263.144531 201.3125 263.144531 201.707031 L 263.285156 201.707031 L 263.09375 205.964844 L 263.082031 206.207031 L 263.054688 207.660156 L 263.003906 207.660156 C 262.699219 212.261719 261.984375 216.839844 260.839844 221.324219 L 260.953125 221.363281 L 260.253906 223.59375 L 259.679688 225.824219 L 259.566406 225.785156 C 258.023438 230.605469 255.984375 235.257812 253.5 239.679688 L 253.601562 239.742188 L 252.328125 241.746094 L 251.207031 243.707031 L 251.105469 243.644531 C 248.519531 247.660156 245.550781 251.417969 242.25 254.875 L 297.355469 254.875 L 297.496094 243.234375 L 330.507812 243.234375 C 333.503906 243.234375 336.203125 240.828125 336.574219 237.832031 C 336.941406 234.835938 334.839844 232.425781 331.847656 232.425781 L 269.144531 232.425781 C 265.757812 232.425781 263.363281 229.6875 263.769531 226.335938 C 264.191406 222.945312 267.273438 220.203125 270.664062 220.203125 L 297.800781 220.203125 L 297.917969 211.664062 L 315.371094 211.664062 C 318.367188 211.664062 321.066406 209.253906 321.449219 206.257812 C 321.820312 203.261719 319.714844 200.855469 316.722656 200.855469 L 297.34375 200.726562 L 291.0625 200.6875 Z M 291.074219 200.714844" fill-rule="evenodd"/></svg>