<svg xmlns="http://www.w3.org/2000/svg" width="1000" viewBox="0 0 750 500" height="500" version="1.0"><defs><clipPath id="a"><path d="M 298 82 L 312.75 82 L 312.75 92 L 298 92 Z M 298 82"/></clipPath><clipPath id="b"><path d="M 120 6.328125 L 209 6.328125 L 209 35 L 120 35 Z M 120 6.328125"/></clipPath><clipPath id="c"><path d="M 164 134 L 177 134 L 177 143.578125 L 164 143.578125 Z M 164 134"/></clipPath><clipPath id="d"><path d="M 149 134 L 162 134 L 162 143.578125 L 149 143.578125 Z M 149 134"/></clipPath></defs><path fill="#FFF" d="M-75 -15H825V165H-75z"/><path fill="#FFF" d="M-75 -15H825V165H-75z"/><path fill="#F6F6E9" d="M-75 -15H825V165H-75z"/><path fill="#ED5B2D" d="M 34.109375 99.761719 L 28.511719 99.761719 C 26.066406 99.761719 24.324219 101.753906 24.628906 104.195312 C 24.933594 106.648438 27.167969 108.628906 29.625 108.628906 L 35.222656 108.628906 C 37.667969 108.628906 39.417969 106.640625 39.117188 104.195312 C 38.800781 101.753906 36.578125 99.761719 34.117188 99.761719 Z M 34.109375 99.761719" fill-rule="evenodd"/><path fill="#ED5B2D" d="M 51.144531 123.867188 C 48.675781 123.867188 46.945312 125.84375 47.25 128.300781 C 47.542969 130.742188 49.789062 132.730469 52.246094 132.730469 L 57.832031 132.730469 C 60.28125 132.730469 62.03125 130.742188 61.726562 128.300781 C 61.414062 125.855469 59.1875 123.867188 56.738281 123.867188 Z M 51.144531 123.867188" fill-rule="evenodd"/><path fill="#ED5B2D" d="M 29.707031 86.917969 C 29.402344 84.464844 27.179688 82.484375 24.71875 82.484375 L 19.113281 82.484375 C 16.667969 82.484375 14.9375 84.472656 15.242188 86.917969 C 15.535156 89.363281 17.78125 91.351562 20.238281 91.351562 L 25.824219 91.351562 C 28.269531 91.351562 30.019531 89.371094 29.71875 86.917969 Z M 29.707031 86.917969" fill-rule="evenodd"/><path fill="#ED5B2D" d="M 47.957031 72.257812 L 42.375 72.257812 C 39.914062 72.257812 38.175781 74.234375 38.480469 76.6875 C 38.773438 79.132812 41.019531 81.121094 43.476562 81.121094 L 49.0625 81.121094 C 51.519531 81.121094 53.269531 79.144531 52.957031 76.6875 C 52.652344 74.246094 50.417969 72.257812 47.96875 72.257812 Z M 47.957031 72.257812" fill-rule="evenodd"/><path fill="#ED5B2D" d="M 271.738281 60.066406 C 269.289062 60.066406 267.539062 58.089844 267.84375 55.636719 C 268.15625 53.191406 270.382812 51.203125 272.832031 51.203125 L 278.445312 51.203125 C 280.894531 51.203125 282.636719 53.191406 282.332031 55.636719 C 282.027344 58.078125 279.792969 60.066406 277.332031 60.066406 Z M 271.738281 60.066406" fill-rule="evenodd"/><path fill="#ED5B2D" d="M 293.640625 99.761719 L 299.238281 99.761719 C 301.683594 99.761719 303.425781 101.753906 303.121094 104.195312 C 302.816406 106.648438 300.582031 108.628906 298.125 108.628906 L 292.527344 108.628906 C 290.082031 108.628906 288.332031 106.640625 288.632812 104.195312 C 288.949219 101.753906 291.171875 99.761719 293.632812 99.761719 Z M 293.640625 99.761719" fill-rule="evenodd"/><path fill="#ED5B2D" d="M 276.617188 123.867188 C 279.082031 123.867188 280.8125 125.84375 280.511719 128.300781 C 280.21875 130.742188 277.972656 132.730469 275.511719 132.730469 L 269.929688 132.730469 C 267.480469 132.730469 265.730469 130.742188 266.035156 128.300781 C 266.347656 125.855469 268.574219 123.867188 271.03125 123.867188 L 276.625 123.867188 Z M 276.617188 123.867188" fill-rule="evenodd"/><g clip-path="url(#a)"><path fill="#ED5B2D" d="M 298.050781 86.917969 C 298.355469 84.464844 300.582031 82.484375 303.039062 82.484375 L 308.644531 82.484375 C 311.09375 82.484375 312.824219 84.472656 312.519531 86.917969 C 312.226562 89.363281 309.980469 91.351562 307.523438 91.351562 L 301.9375 91.351562 C 299.488281 91.351562 297.738281 89.371094 298.042969 86.917969 Z M 298.050781 86.917969" fill-rule="evenodd"/></g><path fill="#ED5B2D" d="M 279.800781 72.257812 L 285.386719 72.257812 C 287.855469 72.257812 289.585938 74.234375 289.28125 76.6875 C 288.988281 79.132812 286.742188 81.121094 284.285156 81.121094 L 278.699219 81.121094 C 276.230469 81.121094 274.492188 79.144531 274.804688 76.6875 C 275.109375 74.246094 277.34375 72.257812 279.800781 72.257812 L 279.8125 72.257812 Z M 279.800781 72.257812" fill-rule="evenodd"/><path fill="#ED5B2D" d="M 56.019531 60.066406 C 58.46875 60.066406 60.21875 58.089844 59.914062 55.636719 C 59.601562 53.191406 57.375 51.203125 54.929688 51.203125 L 49.3125 51.203125 C 46.867188 51.203125 45.125 53.191406 45.429688 55.636719 C 45.730469 58.078125 47.96875 60.066406 50.425781 60.066406 Z M 56.019531 60.066406" fill-rule="evenodd"/><g clip-path="url(#b)"><path fill="#291B25" d="M 120.898438 20.3125 L 128.617188 33.664062 C 128.699219 33.804688 129.550781 33.492188 130.804688 32.882812 L 131.582031 34.238281 C 133.757812 32.53125 136.0625 30.984375 138.492188 29.621094 L 137.988281 28.746094 C 139.148438 27.96875 139.835938 27.390625 139.757812 27.25 L 132.015625 13.859375 L 132.007812 13.871094 C 131.652344 13.730469 129.125 14.910156 126.179688 16.597656 C 123.246094 18.292969 120.960938 19.878906 120.898438 20.261719 L 120.890625 20.273438 L 120.910156 20.3125 Z M 197.835938 13.859375 L 190.097656 27.25 C 190.015625 27.390625 190.703125 27.96875 191.859375 28.746094 L 191.351562 29.621094 C 193.769531 30.984375 196.085938 32.53125 198.261719 34.238281 L 199.039062 32.882812 C 200.296875 33.492188 201.136719 33.804688 201.226562 33.664062 L 208.964844 20.273438 L 208.953125 20.261719 C 208.832031 19.375 198.6875 13.539062 197.855469 13.859375 L 197.835938 13.851562 Z M 152.828125 7.347656 L 152.828125 19.9375 C 152.828125 20.375 155.964844 20.738281 160.394531 20.898438 L 160.394531 22.917969 L 169.449219 22.917969 L 169.449219 20.898438 C 173.878906 20.746094 177.015625 20.375 177.015625 19.9375 L 177.015625 7.347656 L 176.984375 7.347656 C 176.542969 6.78125 171.3125 6.328125 164.925781 6.328125 C 158.542969 6.328125 153.3125 6.78125 152.867188 7.347656 Z M 152.828125 7.347656" fill-rule="evenodd"/></g><path fill="#291B25" d="M 212.65625 87.414062 C 213.101562 63.328125 195.964844 43.40625 173.019531 39.066406 L 180.882812 34.722656 L 175.386719 31.421875 C 201.640625 36.8125 221.136719 59.835938 220.628906 87.554688 L 212.65625 87.402344 Z M 212.65625 87.414062" fill-rule="evenodd"/><path fill="#291B25" d="M 119.433594 80.050781 L 119.574219 79.195312 L 122.667969 79.699219 L 122.527344 80.554688 Z M 119.433594 80.050781" fill-rule="evenodd"/><path fill="#291B25" d="M 205.109375 94.128906 L 205.253906 93.28125 L 208.347656 93.785156 L 208.207031 94.644531 Z M 205.109375 94.128906" fill-rule="evenodd"/><path fill="#291B25" d="M 122.519531 69.289062 L 122.871094 68.488281 L 125.746094 69.742188 L 125.390625 70.539062 Z M 122.519531 69.289062" fill-rule="evenodd"/><path fill="#291B25" d="M 202.035156 104.09375 L 202.390625 103.296875 L 205.261719 104.550781 L 204.910156 105.347656 Z M 202.035156 104.09375" fill-rule="evenodd"/><path fill="#291B25" d="M 128.75 58.875 L 129.304688 58.210938 L 131.734375 60.179688 L 131.1875 60.855469 Z M 128.75 58.875" fill-rule="evenodd"/><path fill="#291B25" d="M 196.046875 113.648438 L 196.59375 112.980469 L 199.03125 114.960938 L 198.472656 115.625 Z M 196.046875 113.648438" fill-rule="evenodd"/><path fill="#291B25" d="M 137.074219 50.859375 L 137.785156 50.355469 L 139.625 52.878906 L 138.925781 53.394531 Z M 137.074219 50.859375" fill-rule="evenodd"/><path fill="#291B25" d="M 188.15625 120.949219 L 188.851562 120.441406 L 190.695312 122.976562 L 189.996094 123.484375 Z M 188.15625 120.949219" fill-rule="evenodd"/><path fill="#291B25" d="M 147.234375 45.214844 L 148.367188 48.132812 L 149.175781 47.808594 L 148.042969 44.890625 Z M 147.234375 45.214844" fill-rule="evenodd"/><path fill="#291B25" d="M 178.605469 126.015625 L 179.414062 125.703125 L 180.546875 128.621094 L 179.738281 128.933594 Z M 178.605469 126.015625" fill-rule="evenodd"/><path fill="#291B25" d="M 157.753906 42.4375 L 158.613281 42.324219 L 159.007812 45.4375 L 158.148438 45.539062 Z M 157.753906 42.4375" fill-rule="evenodd"/><path fill="#291B25" d="M 168.769531 128.398438 L 169.632812 128.289062 L 170.027344 131.398438 L 169.164062 131.511719 Z M 168.769531 128.398438" fill-rule="evenodd"/><path fill="#291B25" d="M 170.570312 42.519531 L 171.433594 42.648438 L 170.9375 45.738281 L 170.085938 45.609375 Z M 170.570312 42.519531" fill-rule="evenodd"/><path fill="#291B25" d="M 156.84375 128.085938 L 157.703125 128.230469 L 157.207031 131.320312 L 156.347656 131.1875 Z M 156.84375 128.085938" fill-rule="evenodd"/><path fill="#291B25" d="M 181.328125 45.527344 L 180.082031 48.40625 L 180.882812 48.75 L 182.125 45.871094 Z M 181.328125 45.527344" fill-rule="evenodd"/><path fill="#291B25" d="M 146.898438 125.089844 L 147.6875 125.429688 L 146.453125 128.308594 L 145.65625 127.964844 Z M 146.898438 125.089844" fill-rule="evenodd"/><path fill="#291B25" d="M 191.453125 51.433594 L 189.511719 53.886719 L 190.1875 54.421875 L 192.132812 51.96875 Z M 191.453125 51.433594" fill-rule="evenodd"/><path fill="#291B25" d="M 137.59375 119.414062 L 138.269531 119.949219 L 136.328125 122.402344 L 135.648438 121.867188 Z M 137.59375 119.414062" fill-rule="evenodd"/><path fill="#291B25" d="M 205.375 69.539062 L 202.46875 70.722656 L 202.792969 71.527344 L 205.699219 70.347656 Z M 205.375 69.539062" fill-rule="evenodd"/><path fill="#291B25" d="M 124.988281 102.308594 L 125.308594 103.113281 L 122.40625 104.296875 L 122.082031 103.488281 Z M 124.988281 102.308594" fill-rule="evenodd"/><path fill="#291B25" d="M 199.800781 59.867188 L 197.269531 61.722656 L 197.785156 62.421875 L 200.316406 60.5625 Z M 199.800781 59.867188" fill-rule="evenodd"/><path fill="#291B25" d="M 129.996094 111.40625 L 130.511719 112.113281 L 127.980469 113.96875 L 127.464844 113.273438 Z M 129.996094 111.40625" fill-rule="evenodd"/><path fill="#291B25" d="M 208.480469 80.960938 L 205.363281 81.34375 L 205.476562 82.203125 L 208.582031 81.820312 Z M 208.480469 80.960938" fill-rule="evenodd"/><path fill="#291B25" d="M 122.304688 91.632812 L 122.417969 92.492188 L 119.300781 92.875 L 119.199219 92.019531 Z M 122.304688 91.632812" fill-rule="evenodd"/><path fill="#291B25" d="M 151.898438 126.9375 L 152.738281 127.179688 L 151.867188 130.1875 L 151.027344 129.945312 Z M 151.898438 126.9375" fill-rule="evenodd"/><path fill="#291B25" d="M 195.976562 55.453125 L 193.71875 57.625 L 194.328125 58.242188 L 196.582031 56.070312 Z M 195.976562 55.453125" fill-rule="evenodd"/><path fill="#291B25" d="M 207.449219 75.679688 L 204.390625 76.4375 L 204.605469 77.273438 L 207.648438 76.515625 Z M 207.449219 75.679688" fill-rule="evenodd"/><path fill="#291B25" d="M 123.175781 96.5625 L 123.378906 97.398438 L 120.332031 98.15625 L 120.128906 97.320312 Z M 123.175781 96.5625" fill-rule="evenodd"/><path fill="#291B25" d="M 207.234375 98.914062 L 206.992188 99.753906 L 203.988281 98.882812 L 204.21875 98.054688 Z M 207.234375 98.914062" fill-rule="evenodd"/><path fill="#291B25" d="M 195.417969 118.949219 L 194.792969 119.542969 L 192.617188 117.292969 L 193.242188 116.6875 Z M 195.417969 118.949219" fill-rule="evenodd"/><path fill="#291B25" d="M 175.15625 130.390625 L 174.304688 130.601562 L 173.546875 127.5625 L 174.394531 127.351562 Z M 175.15625 130.390625" fill-rule="evenodd"/><path fill="#291B25" d="M 175.914062 43.648438 L 175.042969 46.65625 L 175.882812 46.902344 L 176.753906 43.890625 Z M 175.914062 43.648438" fill-rule="evenodd"/><path fill="#291B25" d="M 133.453125 115.585938 L 134.0625 116.210938 L 131.804688 118.382812 L 131.199219 117.765625 Z M 133.453125 115.585938" fill-rule="evenodd"/><path fill="#291B25" d="M 123.792969 74.953125 L 123.558594 75.78125 L 120.546875 74.910156 L 120.777344 74.082031 Z M 123.792969 74.953125" fill-rule="evenodd"/><path fill="#291B25" d="M 135.164062 56.542969 L 134.535156 57.140625 L 132.363281 54.886719 L 132.988281 54.292969 Z M 135.164062 56.542969" fill-rule="evenodd"/><path fill="#291B25" d="M 154.234375 46.273438 L 153.382812 46.488281 L 152.625 43.445312 L 153.476562 43.234375 Z M 154.234375 46.273438" fill-rule="evenodd"/><path fill="#291B25" d="M 200.222656 90.039062 L 208.824219 90.199219 L 208.914062 85.292969 L 200.316406 85.132812 Z M 200.222656 90.039062" fill-rule="evenodd"/><path fill="#291B25" d="M 165.515625 131.855469 L 160.605469 131.761719 L 160.769531 123.179688 L 165.675781 123.269531 Z M 165.515625 131.855469" fill-rule="evenodd"/><path fill="#291B25" d="M 118.867188 88.542969 L 118.957031 83.636719 L 127.554688 83.796875 L 127.464844 88.695312 Z M 118.867188 88.542969" fill-rule="evenodd"/><path fill="#291B25" d="M 167.019531 50.65625 L 167.183594 42.074219 L 163.308594 42.003906 L 169.589844 38.53125 L 176.976562 34.449219 L 169.742188 30.109375 L 162.507812 25.765625 L 162.429688 30.269531 C 158.734375 30.359375 155.125 30.816406 151.632812 31.582031 L 153.554688 39.308594 C 156.378906 38.699219 159.300781 38.328125 162.285156 38.238281 L 162.207031 42.609375 L 162.265625 42.578125 L 162.113281 50.566406 Z M 167.019531 50.65625" fill-rule="evenodd"/><path fill="#291B25" d="M 203.511719 65.652344 L 202.996094 64.734375 L 198.484375 67.21875 L 199 68.136719 Z M 203.511719 65.652344" fill-rule="evenodd"/><path fill="#291B25" d="M 197.734375 107.871094 L 198.28125 106.972656 L 202.691406 109.628906 L 202.15625 110.527344 Z M 197.734375 107.871094" fill-rule="evenodd"/><path fill="#291B25" d="M 143.792969 121.242188 L 142.894531 120.695312 L 140.230469 125.109375 L 141.132812 125.652344 Z M 143.792969 121.242188" fill-rule="evenodd"/><path fill="#291B25" d="M 182.703125 121.957031 L 183.621094 121.441406 L 186.121094 125.957031 L 185.199219 126.460938 Z M 182.703125 121.957031" fill-rule="evenodd"/><path fill="#291B25" d="M 129.296875 106.617188 L 128.78125 105.691406 L 124.269531 108.183594 L 124.785156 109.101562 Z M 129.296875 106.617188" fill-rule="evenodd"/><path fill="#291B25" d="M 125.085938 64.207031 L 125.625 63.308594 L 130.042969 65.957031 L 129.5 66.863281 Z M 125.085938 64.207031" fill-rule="evenodd"/><path fill="#291B25" d="M 187.546875 48.726562 L 186.648438 48.183594 L 183.988281 52.59375 L 184.886719 53.128906 Z M 187.546875 48.726562" fill-rule="evenodd"/><path fill="#291B25" d="M 220.609375 89.414062 C 220.425781 93.460938 219.832031 97.398438 218.847656 101.1875 L 211.179688 98.984375 C 211.980469 95.863281 212.476562 92.613281 212.636719 89.269531 Z M 220.609375 89.414062" fill-rule="evenodd"/><path fill="#291B25" d="M 218.039062 103.984375 C 216.824219 107.8125 215.21875 111.464844 213.265625 114.890625 L 206.425781 110.78125 C 208.035156 107.941406 209.347656 104.933594 210.359375 101.78125 L 218.03125 103.984375 Z M 218.039062 103.984375" fill-rule="evenodd"/><path fill="#291B25" d="M 211.757812 117.394531 L 204.917969 113.285156 C 203.128906 116.050781 201.074219 118.617188 198.777344 120.957031 L 204.3125 126.695312 C 207.105469 123.867188 209.59375 120.757812 211.746094 117.394531 Z M 211.757812 117.394531" fill-rule="evenodd"/><path fill="#291B25" d="M 202.21875 128.714844 L 196.683594 122.976562 C 194.253906 125.179688 191.605469 127.136719 188.773438 128.8125 L 192.636719 135.78125 C 196.078125 133.761719 199.292969 131.390625 202.226562 128.703125 Z M 202.21875 128.714844" fill-rule="evenodd"/><path fill="#291B25" d="M 190.078125 137.195312 C 186.578125 139.023438 182.863281 140.488281 178.980469 141.546875 L 177.058594 133.824219 C 180.253906 132.933594 183.320312 131.722656 186.210938 130.226562 L 190.066406 137.195312 Z M 190.078125 137.195312" fill-rule="evenodd"/><g clip-path="url(#c)"><path fill="#291B25" d="M 176.148438 142.253906 C 172.324219 143.09375 168.367188 143.558594 164.300781 143.578125 L 164.453125 135.609375 C 167.800781 135.570312 171.066406 135.195312 174.234375 134.519531 L 176.15625 142.246094 Z M 176.148438 142.253906" fill-rule="evenodd"/></g><g clip-path="url(#d)"><path fill="#291B25" d="M 161.386719 143.527344 C 157.328125 143.34375 153.382812 142.75 149.589844 141.769531 L 151.796875 134.117188 C 154.933594 134.914062 158.179688 135.40625 161.527344 135.570312 L 161.375 143.527344 Z M 161.386719 143.527344" fill-rule="evenodd"/></g><path fill="#291B25" d="M 146.789062 140.960938 C 142.953125 139.75 139.292969 138.15625 135.863281 136.207031 L 139.980469 129.390625 C 142.820312 130.984375 145.835938 132.308594 148.992188 133.316406 L 146.789062 140.972656 Z M 146.789062 140.960938" fill-rule="evenodd"/><path fill="#291B25" d="M 133.363281 134.703125 L 137.480469 127.875 C 134.707031 126.085938 132.140625 124.039062 129.792969 121.746094 L 124.054688 127.269531 C 126.878906 130.054688 130.003906 132.539062 133.375 134.691406 Z M 133.363281 134.703125" fill-rule="evenodd"/><path fill="#291B25" d="M 122.023438 125.167969 L 127.769531 119.644531 C 125.5625 117.222656 123.601562 114.578125 121.921875 111.75 L 114.941406 115.597656 C 116.964844 119.03125 119.339844 122.242188 122.03125 125.167969 Z M 122.023438 125.167969" fill-rule="evenodd"/><path fill="#291B25" d="M 113.523438 113.0625 C 111.691406 109.566406 110.226562 105.863281 109.152344 101.984375 L 116.894531 100.066406 C 117.785156 103.257812 118.996094 106.316406 120.496094 109.214844 L 113.515625 113.0625 Z M 113.523438 113.0625" fill-rule="evenodd"/><path fill="#291B25" d="M 108.457031 99.15625 C 107.617188 95.339844 107.152344 91.382812 107.121094 87.332031 L 115.09375 87.472656 C 115.132812 90.816406 115.507812 94.078125 116.183594 97.238281 L 108.445312 99.15625 Z M 108.457031 99.15625" fill-rule="evenodd"/><path fill="#291B25" d="M 107.171875 84.414062 C 107.351562 80.363281 107.949219 76.425781 108.929688 72.640625 L 116.601562 74.839844 C 115.800781 77.972656 115.304688 81.214844 115.144531 84.554688 Z M 107.171875 84.414062" fill-rule="evenodd"/><path fill="#291B25" d="M 109.742188 69.84375 C 110.953125 66.015625 112.554688 62.359375 114.515625 58.9375 L 121.34375 63.046875 C 119.746094 65.882812 118.421875 68.894531 117.410156 72.054688 L 109.742188 69.851562 Z M 109.742188 69.84375" fill-rule="evenodd"/><path fill="#291B25" d="M 116.023438 56.441406 L 122.863281 60.554688 C 124.652344 57.785156 126.707031 55.222656 129.003906 52.878906 L 123.46875 47.144531 C 120.675781 49.96875 118.179688 53.082031 116.03125 56.441406 Z M 116.023438 56.441406" fill-rule="evenodd"/><path fill="#291B25" d="M 125.5625 45.125 L 131.097656 50.847656 C 133.523438 48.648438 136.175781 46.6875 139.007812 45.011719 L 135.144531 38.042969 C 131.703125 40.0625 128.488281 42.4375 125.5625 45.125 Z M 125.5625 45.125" fill-rule="evenodd"/><path fill="#291B25" d="M 137.703125 36.640625 C 141.203125 34.8125 144.917969 33.347656 148.800781 32.277344 L 150.722656 40.003906 C 147.527344 40.890625 144.460938 42.113281 141.566406 43.597656 L 137.703125 36.632812 Z M 137.703125 36.640625" fill-rule="evenodd"/><path fill="#291B25" d="M 145.179688 70.53125 L 145.332031 70.367188 L 159.152344 80.980469 C 160 80.507812 160.953125 80.265625 161.902344 80.242188 L 170.320312 52.496094 L 170.542969 52.546875 L 165.714844 81.554688 C 165.816406 81.648438 165.929688 81.738281 166.03125 81.828125 C 168.398438 84.050781 168.519531 87.757812 166.304688 90.121094 C 165.675781 90.785156 164.9375 91.269531 164.136719 91.582031 L 172.675781 119.6875 L 171.332031 120.089844 L 162.773438 91.925781 C 161.09375 92.148438 159.324219 91.644531 157.988281 90.390625 C 156.074219 88.605469 155.628906 85.847656 156.691406 83.597656 L 145.179688 70.519531 Z M 145.179688 70.53125" fill-rule="evenodd"/><path fill="#ED5B2D" d="M 76.648438 100.84375 L 97.832031 100.84375 C 100.523438 100.84375 102.972656 103.015625 103.304688 105.699219 C 103.628906 108.355469 101.738281 110.527344 99.035156 110.527344 L 49.253906 110.527344 C 46.875 110.527344 45.207031 112.433594 45.507812 114.808594 C 45.804688 117.179688 47.957031 119.089844 50.324219 119.089844 L 76.527344 119.089844 L 76.640625 128.308594 L 120.375 128.308594 L 119.300781 127.257812 L 119.371094 127.199219 C 116.671875 124.230469 114.273438 120.988281 112.21875 117.546875 L 112.136719 117.585938 L 111.320312 116.019531 L 110.347656 114.375 L 110.429688 114.324219 C 108.585938 110.757812 107.109375 107.011719 106.027344 103.15625 L 105.9375 103.175781 L 105.53125 101.359375 L 105.046875 99.609375 L 105.136719 99.589844 C 104.289062 95.671875 103.84375 91.675781 103.792969 87.65625 L 103.699219 87.65625 L 103.78125 85.828125 L 103.78125 85.261719 L 81.617188 85.402344 L 76.628906 85.433594 L 61.242188 85.535156 C 58.863281 85.535156 57.195312 87.441406 57.488281 89.816406 C 57.78125 92.1875 59.9375 94.097656 62.304688 94.097656 L 76.164062 94.097656 L 76.253906 100.863281 L 76.617188 100.863281 Z M 76.648438 100.84375" fill-rule="evenodd"/><path fill="#ED5B2D" d="M 81.101562 75.234375 L 104.964844 75.234375 C 105.179688 74.183594 105.410156 73.144531 105.671875 72.105469 L 105.582031 72.074219 L 106.140625 70.308594 L 106.59375 68.539062 L 106.683594 68.570312 C 107.515625 65.996094 108.515625 63.480469 109.691406 61.039062 L 69.730469 61.039062 C 67.351562 61.039062 65.691406 62.945312 65.984375 65.320312 C 66.277344 67.691406 68.433594 69.601562 70.800781 69.601562 L 75.859375 69.601562 L 75.921875 75.234375 Z M 81.101562 75.234375" fill-rule="evenodd"/><path fill="#ED5B2D" d="M 82.4375 51.121094 L 115.699219 51.121094 C 117.296875 48.980469 119.039062 46.949219 120.898438 45.042969 L 120.839844 44.972656 L 122.175781 43.75 L 123.488281 42.417969 L 123.558594 42.488281 C 124.542969 41.597656 125.542969 40.75 126.585938 39.933594 L 81.128906 39.933594 C 79.289062 39.933594 77.679688 40.8125 76.667969 42.164062 L 76.660156 51.121094 Z M 82.4375 51.121094" fill-rule="evenodd"/><path fill="#ED5B2D" d="M 201.355469 39.933594 C 205.464844 43.183594 209.125 46.941406 212.234375 51.121094 L 251.101562 51.121094 L 251.089844 42.164062 C 250.089844 40.8125 248.472656 39.933594 246.628906 39.933594 Z M 201.355469 39.933594" fill-rule="evenodd"/><path fill="#ED5B2D" d="M 247.398438 61.039062 L 218.210938 61.039062 C 220.335938 65.5 221.914062 70.265625 222.875 75.226562 L 251.828125 75.226562 L 251.890625 69.589844 L 256.949219 69.589844 C 259.324219 69.589844 261.480469 67.683594 261.765625 65.308594 C 262.058594 62.9375 260.398438 61.027344 258.019531 61.027344 L 247.386719 61.027344 Z M 247.398438 61.039062" fill-rule="evenodd"/><path fill="#ED5B2D" d="M 246.113281 85.394531 L 223.925781 85.253906 C 223.9375 85.566406 223.9375 85.867188 223.9375 86.179688 L 224.050781 86.179688 L 223.898438 89.554688 L 223.886719 89.746094 L 223.867188 90.898438 L 223.828125 90.898438 C 223.582031 94.542969 223.015625 98.167969 222.105469 101.722656 L 222.199219 101.753906 L 221.640625 103.519531 L 221.1875 105.285156 L 221.09375 105.257812 C 219.871094 109.074219 218.253906 112.757812 216.28125 116.261719 L 216.359375 116.3125 L 215.347656 117.898438 L 214.457031 119.453125 L 214.378906 119.402344 C 212.324219 122.582031 209.964844 125.5625 207.347656 128.300781 L 251.101562 128.300781 L 251.210938 119.078125 L 277.425781 119.078125 C 279.800781 119.078125 281.945312 117.171875 282.242188 114.796875 C 282.535156 112.425781 280.863281 110.515625 278.488281 110.515625 L 228.703125 110.515625 C 226.011719 110.515625 224.109375 108.347656 224.433594 105.691406 C 224.765625 103.003906 227.214844 100.832031 229.90625 100.832031 L 251.457031 100.832031 L 251.546875 94.066406 L 265.40625 94.066406 C 267.785156 94.066406 269.929688 92.160156 270.230469 89.785156 C 270.523438 87.414062 268.855469 85.503906 266.476562 85.503906 L 251.089844 85.402344 L 246.101562 85.375 Z M 246.113281 85.394531" fill-rule="evenodd"/><g fill="#291B25"><g><g><path d="M 26.328125 -26.90625 L 17.828125 -13.421875 L 26.296875 0 L 18.859375 0 L 13.90625 -7.8125 L 9.359375 0 L 1.921875 0 L 10.390625 -13.453125 L 1.921875 -26.90625 L 9.359375 -26.90625 L 14.296875 -19.046875 L 18.890625 -26.90625 Z M 26.328125 -26.90625" transform="translate(329.081 73.732)"/></g></g></g><g fill="#291B25"><g><g><path d="M 9.421875 -4.984375 L 12.34375 -4.984375 C 14.84375 -4.984375 16.804688 -5.75 18.234375 -7.28125 C 19.671875 -8.8125 20.390625 -10.867188 20.390625 -13.453125 C 20.390625 -16.035156 19.671875 -18.09375 18.234375 -19.625 C 16.804688 -21.15625 14.84375 -21.921875 12.34375 -21.921875 L 9.421875 -21.921875 Z M 12.34375 -26.90625 C 16.632812 -26.90625 20.160156 -25.660156 22.921875 -23.171875 C 25.679688 -20.679688 27.0625 -17.445312 27.0625 -13.46875 C 27.0625 -9.5 25.679688 -6.257812 22.921875 -3.75 C 20.160156 -1.25 16.632812 0 12.34375 0 L 2.875 0 L 2.875 -26.90625 Z M 12.34375 -26.90625" transform="translate(366.865 73.732)"/></g></g></g><g fill="#291B25"><g><g><path d="M 15.90625 -6.78125 C 16.851562 -7.695312 17.328125 -9 17.328125 -10.6875 C 17.328125 -12.375 16.851562 -13.671875 15.90625 -14.578125 C 14.957031 -15.484375 13.867188 -15.9375 12.640625 -15.9375 C 11.421875 -15.9375 10.335938 -15.476562 9.390625 -14.5625 C 8.441406 -13.644531 7.96875 -12.34375 7.96875 -10.65625 C 7.96875 -8.96875 8.441406 -7.671875 9.390625 -6.765625 C 10.335938 -5.859375 11.421875 -5.40625 12.640625 -5.40625 C 13.867188 -5.40625 14.957031 -5.863281 15.90625 -6.78125 Z M 4.125 -2.796875 C 2.238281 -4.835938 1.296875 -7.457031 1.296875 -10.65625 C 1.296875 -13.851562 2.238281 -16.476562 4.125 -18.53125 C 6.019531 -20.582031 8.328125 -21.609375 11.046875 -21.609375 C 13.773438 -21.609375 15.867188 -20.601562 17.328125 -18.59375 L 17.328125 -21.390625 L 23.875 -21.390625 L 23.875 0 L 17.328125 0 L 17.328125 -3.109375 C 15.742188 -0.859375 13.617188 0.265625 10.953125 0.265625 C 8.296875 0.265625 6.019531 -0.753906 4.125 -2.796875 Z M 4.125 -2.796875" transform="translate(394.225 73.732)"/></g></g></g><g fill="#291B25"><g><g><path d="M 8.46875 -0.421875 L 0.15625 -21.390625 L 7.59375 -21.390625 L 12.34375 -7.390625 L 17.546875 -21.390625 L 24.421875 -21.390625 L 10.765625 10.1875 L 3.90625 10.1875 Z M 8.46875 -0.421875" transform="translate(420.015 73.732)"/></g></g></g><g fill="#291B25"><g><g><path d="M 1.421875 -14.953125 C 1.421875 -16.835938 2.222656 -18.414062 3.828125 -19.6875 C 5.441406 -20.96875 7.617188 -21.609375 10.359375 -21.609375 C 13.109375 -21.609375 15.328125 -20.984375 17.015625 -19.734375 C 18.703125 -18.484375 19.597656 -16.773438 19.703125 -14.609375 L 13 -14.609375 C 12.914062 -15.347656 12.65625 -15.847656 12.21875 -16.109375 C 11.789062 -16.378906 11.140625 -16.515625 10.265625 -16.515625 C 8.554688 -16.515625 7.703125 -15.992188 7.703125 -14.953125 C 7.703125 -14.003906 8.75 -13.351562 10.84375 -13 C 12.96875 -12.632812 14.898438 -12.082031 16.640625 -11.34375 C 17.523438 -10.988281 18.269531 -10.394531 18.875 -9.5625 C 19.476562 -8.726562 19.78125 -7.710938 19.78125 -6.515625 C 19.78125 -4.523438 18.921875 -2.894531 17.203125 -1.625 C 15.492188 -0.363281 13.335938 0.265625 10.734375 0.265625 C 8.128906 0.265625 5.957031 -0.328125 4.21875 -1.515625 C 2.476562 -2.703125 1.53125 -4.457031 1.375 -6.78125 L 8.09375 -6.78125 C 8.269531 -5.476562 9.1875 -4.828125 10.84375 -4.828125 C 11.613281 -4.828125 12.242188 -5.003906 12.734375 -5.359375 C 13.234375 -5.722656 13.484375 -6.1875 13.484375 -6.75 C 13.484375 -7.3125 13.066406 -7.753906 12.234375 -8.078125 C 11.410156 -8.410156 10.410156 -8.691406 9.234375 -8.921875 C 8.054688 -9.160156 6.875 -9.453125 5.6875 -9.796875 C 4.5 -10.140625 3.488281 -10.738281 2.65625 -11.59375 C 1.832031 -12.445312 1.421875 -13.566406 1.421875 -14.953125 Z M 1.421875 -14.953125" transform="translate(443.62 73.732)"/></g></g></g><g fill="#291B25"><g><g><path d="M 15.703125 -6.703125 C 16.578125 -7.628906 17.015625 -8.957031 17.015625 -10.6875 C 17.015625 -12.425781 16.566406 -13.75 15.671875 -14.65625 C 14.773438 -15.5625 13.710938 -16.015625 12.484375 -16.015625 C 11.265625 -16.015625 10.210938 -15.5625 9.328125 -14.65625 C 8.453125 -13.75 8.015625 -12.425781 8.015625 -10.6875 C 8.015625 -8.957031 8.46875 -7.628906 9.375 -6.703125 C 10.28125 -5.785156 11.34375 -5.328125 12.5625 -5.328125 C 13.789062 -5.328125 14.835938 -5.785156 15.703125 -6.703125 Z M 4.578125 -2.75 C 2.421875 -4.769531 1.34375 -7.425781 1.34375 -10.71875 C 1.34375 -14.019531 2.414062 -16.660156 4.5625 -18.640625 C 6.707031 -20.617188 9.363281 -21.609375 12.53125 -21.609375 C 15.695312 -21.609375 18.347656 -20.617188 20.484375 -18.640625 C 22.617188 -16.660156 23.6875 -14.019531 23.6875 -10.71875 C 23.6875 -7.425781 22.625 -4.769531 20.5 -2.75 C 18.382812 -0.738281 15.738281 0.265625 12.5625 0.265625 C 9.394531 0.265625 6.734375 -0.738281 4.578125 -2.75 Z M 4.578125 -2.75" transform="translate(474.468 73.732)"/></g></g></g><g fill="#291B25"><g><g><path d="M 12.234375 -21.390625 L 12.234375 -15.9375 L 9.5 -15.9375 L 9.5 0 L 2.953125 0 L 2.953125 -15.9375 L 0.953125 -15.9375 L 0.953125 -21.390625 L 2.953125 -21.390625 L 2.953125 -22.1875 C 2.953125 -24.894531 3.671875 -26.875 5.109375 -28.125 C 6.554688 -29.382812 8.828125 -30.015625 11.921875 -30.015625 L 11.921875 -24.453125 C 11.046875 -24.453125 10.421875 -24.285156 10.046875 -23.953125 C 9.679688 -23.617188 9.5 -23.03125 9.5 -22.1875 L 9.5 -21.390625 Z M 12.234375 -21.390625" transform="translate(498.533 73.732)"/></g></g></g><g fill="#291B25"><g><g><path d="M 16.4375 0 L 9.890625 0 L 9.890625 -8.65625 L 0.578125 -26.90625 L 8.015625 -26.90625 L 13.1875 -14.75 L 18.328125 -26.90625 L 25.75 -26.90625 L 16.4375 -8.65625 Z M 16.4375 0" transform="translate(520.988 73.732)"/></g></g></g><g fill="#291B25"><g><g><path d="M 1.03125 -21.921875 L 1.03125 -26.90625 L 22.265625 -26.90625 L 22.265625 -21.921875 L 14.90625 -21.921875 L 14.90625 0 L 8.359375 0 L 8.359375 -21.921875 Z M 1.03125 -21.921875" transform="translate(556.894 73.732)"/></g></g></g><g fill="#291B25"><g><g><path d="M 9.421875 -21.390625 L 9.421875 -17.40625 C 10.960938 -20.207031 13.007812 -21.609375 15.5625 -21.609375 L 15.5625 -14.953125 L 13.953125 -14.953125 C 12.441406 -14.953125 11.304688 -14.59375 10.546875 -13.875 C 9.796875 -13.15625 9.421875 -11.90625 9.421875 -10.125 L 9.421875 0 L 2.875 0 L 2.875 -21.390625 Z M 9.421875 -21.390625" transform="translate(579.235 73.732)"/></g></g></g><g fill="#291B25"><g><g><path d="M 15.90625 -6.78125 C 16.851562 -7.695312 17.328125 -9 17.328125 -10.6875 C 17.328125 -12.375 16.851562 -13.671875 15.90625 -14.578125 C 14.957031 -15.484375 13.867188 -15.9375 12.640625 -15.9375 C 11.421875 -15.9375 10.335938 -15.476562 9.390625 -14.5625 C 8.441406 -13.644531 7.96875 -12.34375 7.96875 -10.65625 C 7.96875 -8.96875 8.441406 -7.671875 9.390625 -6.765625 C 10.335938 -5.859375 11.421875 -5.40625 12.640625 -5.40625 C 13.867188 -5.40625 14.957031 -5.863281 15.90625 -6.78125 Z M 4.125 -2.796875 C 2.238281 -4.835938 1.296875 -7.457031 1.296875 -10.65625 C 1.296875 -13.851562 2.238281 -16.476562 4.125 -18.53125 C 6.019531 -20.582031 8.328125 -21.609375 11.046875 -21.609375 C 13.773438 -21.609375 15.867188 -20.601562 17.328125 -18.59375 L 17.328125 -21.390625 L 23.875 -21.390625 L 23.875 0 L 17.328125 0 L 17.328125 -3.109375 C 15.742188 -0.859375 13.617188 0.265625 10.953125 0.265625 C 8.296875 0.265625 6.019531 -0.753906 4.125 -2.796875 Z M 4.125 -2.796875" transform="translate(594.524 73.732)"/></g></g></g><g fill="#291B25"><g><g><path d="M 4.265625 -2.71875 C 2.285156 -4.707031 1.296875 -7.363281 1.296875 -10.6875 C 1.296875 -14.007812 2.285156 -16.660156 4.265625 -18.640625 C 6.253906 -20.617188 8.816406 -21.609375 11.953125 -21.609375 C 14.566406 -21.609375 16.78125 -20.960938 18.59375 -19.671875 C 20.40625 -18.390625 21.601562 -16.546875 22.1875 -14.140625 L 15.09375 -14.140625 C 14.488281 -15.421875 13.488281 -16.0625 12.09375 -16.0625 C 10.695312 -16.0625 9.660156 -15.566406 8.984375 -14.578125 C 8.304688 -13.597656 7.96875 -12.300781 7.96875 -10.6875 C 7.96875 -9.082031 8.304688 -7.785156 8.984375 -6.796875 C 9.660156 -5.816406 10.648438 -5.328125 11.953125 -5.328125 C 12.773438 -5.328125 13.414062 -5.46875 13.875 -5.75 C 14.332031 -6.03125 14.738281 -6.53125 15.09375 -7.25 L 22.1875 -7.25 C 21.601562 -4.945312 20.390625 -3.117188 18.546875 -1.765625 C 16.710938 -0.410156 14.515625 0.265625 11.953125 0.265625 C 8.816406 0.265625 6.253906 -0.726562 4.265625 -2.71875 Z M 4.265625 -2.71875" transform="translate(620.314 73.732)"/></g></g></g><g fill="#291B25"><g><g><path d="M 9.421875 0 L 2.875 0 L 2.875 -28.359375 L 9.421875 -28.359375 L 9.421875 -12.453125 L 16.0625 -21.390625 L 24.875 -21.390625 L 15.71875 -10.46875 L 24.875 0 L 16.171875 0 L 9.421875 -8.546875 Z M 9.421875 0" transform="translate(642.348 73.732)"/></g></g></g><g fill="#291B25"><g><g><path d="M 11.953125 0.265625 C 8.835938 0.265625 6.28125 -0.734375 4.28125 -2.734375 C 2.289062 -4.742188 1.296875 -7.410156 1.296875 -10.734375 C 1.296875 -14.054688 2.285156 -16.695312 4.265625 -18.65625 C 6.253906 -20.625 8.816406 -21.609375 11.953125 -21.609375 C 15.097656 -21.609375 17.703125 -20.640625 19.765625 -18.703125 C 21.835938 -16.765625 22.875 -14.066406 22.875 -10.609375 C 22.875 -9.867188 22.828125 -9.179688 22.734375 -8.546875 L 8.015625 -8.546875 C 8.140625 -7.597656 8.554688 -6.820312 9.265625 -6.21875 C 9.984375 -5.625 10.757812 -5.328125 11.59375 -5.328125 C 12.425781 -5.328125 13.046875 -5.410156 13.453125 -5.578125 C 13.859375 -5.742188 14.15625 -5.910156 14.34375 -6.078125 C 14.539062 -6.242188 14.789062 -6.519531 15.09375 -6.90625 L 22.1875 -6.90625 C 21.570312 -4.75 20.34375 -3.015625 18.5 -1.703125 C 16.664062 -0.390625 14.484375 0.265625 11.953125 0.265625 Z M 16.0625 -12.640625 C 15.957031 -13.640625 15.519531 -14.453125 14.75 -15.078125 C 13.988281 -15.703125 13.082031 -16.015625 12.03125 -16.015625 C 10.988281 -16.015625 10.109375 -15.703125 9.390625 -15.078125 C 8.671875 -14.453125 8.222656 -13.640625 8.046875 -12.640625 Z M 16.0625 -12.640625" transform="translate(666.413 73.732)"/></g></g></g><g fill="#291B25"><g><g><path d="M 9.421875 -21.390625 L 9.421875 -17.40625 C 10.960938 -20.207031 13.007812 -21.609375 15.5625 -21.609375 L 15.5625 -14.953125 L 13.953125 -14.953125 C 12.441406 -14.953125 11.304688 -14.59375 10.546875 -13.875 C 9.796875 -13.15625 9.421875 -11.90625 9.421875 -10.125 L 9.421875 0 L 2.875 0 L 2.875 -21.390625 Z M 9.421875 -21.390625" transform="translate(689.673 73.732)"/></g></g></g><g fill="#ED5B2D"><g><g><path d="M 4.34375 -2.296875 L 5.6875 -2.296875 C 6.84375 -2.296875 7.75 -2.648438 8.40625 -3.359375 C 9.0625 -4.066406 9.390625 -5.015625 9.390625 -6.203125 C 9.390625 -7.390625 9.0625 -8.332031 8.40625 -9.03125 C 7.75 -9.738281 6.84375 -10.09375 5.6875 -10.09375 L 4.34375 -10.09375 Z M 5.6875 -12.390625 C 7.664062 -12.390625 9.289062 -11.816406 10.5625 -10.671875 C 11.832031 -9.523438 12.46875 -8.035156 12.46875 -6.203125 C 12.46875 -4.367188 11.832031 -2.875 10.5625 -1.71875 C 9.289062 -0.570312 7.664062 0 5.6875 0 L 1.328125 0 L 1.328125 -12.390625 Z M 5.6875 -12.390625" transform="translate(416.588 108.843)"/></g></g></g><g fill="#ED5B2D"><g><g><path d="M 9.328125 -3.640625 C 9.921875 -4.285156 10.21875 -5.148438 10.21875 -6.234375 C 10.21875 -7.316406 9.921875 -8.179688 9.328125 -8.828125 C 8.734375 -9.472656 7.9375 -9.796875 6.9375 -9.796875 C 5.945312 -9.796875 5.15625 -9.472656 4.5625 -8.828125 C 3.96875 -8.179688 3.671875 -7.316406 3.671875 -6.234375 C 3.671875 -5.148438 3.96875 -4.285156 4.5625 -3.640625 C 5.15625 -2.992188 5.945312 -2.671875 6.9375 -2.671875 C 7.9375 -2.671875 8.734375 -2.992188 9.328125 -3.640625 Z M 2.4375 -1.671875 C 1.207031 -2.878906 0.59375 -4.398438 0.59375 -6.234375 C 0.59375 -8.066406 1.207031 -9.582031 2.4375 -10.78125 C 3.675781 -11.976562 5.1875 -12.578125 6.96875 -12.578125 C 8.75 -12.578125 10.25 -11.976562 11.46875 -10.78125 C 12.6875 -9.582031 13.296875 -8.066406 13.296875 -6.234375 C 13.296875 -4.398438 12.679688 -2.878906 11.453125 -1.671875 C 10.234375 -0.472656 8.734375 0.125 6.953125 0.125 C 5.179688 0.125 3.675781 -0.472656 2.4375 -1.671875 Z M 2.4375 -1.671875" transform="translate(432.226 108.843)"/></g></g></g><g fill="#ED5B2D"><g><g><path d="M 1.234375 -4.9375 L 1.234375 -7.453125 L 9 -7.453125 L 9 -4.9375 Z M 1.234375 -4.9375" transform="translate(448.73 108.843)"/></g></g></g><g fill="#ED5B2D"><g><g><path d="M 0.484375 -10.09375 L 0.484375 -12.390625 L 10.265625 -12.390625 L 10.265625 -10.09375 L 6.875 -10.09375 L 6.875 0 L 3.84375 0 L 3.84375 -10.09375 Z M 0.484375 -10.09375" transform="translate(461.562 108.843)"/></g></g></g><g fill="#ED5B2D"><g><g><path d="M 4.34375 -4.8125 L 4.34375 0 L 1.328125 0 L 1.328125 -12.390625 L 6.21875 -12.390625 C 7.65625 -12.390625 8.769531 -12.019531 9.5625 -11.28125 C 10.363281 -10.539062 10.765625 -9.644531 10.765625 -8.59375 C 10.765625 -7.875 10.546875 -7.171875 10.109375 -6.484375 C 9.679688 -5.804688 8.972656 -5.328125 7.984375 -5.046875 L 11.015625 0 L 7.484375 0 L 4.703125 -4.8125 Z M 4.34375 -10.09375 L 4.34375 -7.109375 L 6.21875 -7.109375 C 6.675781 -7.109375 7.035156 -7.242188 7.296875 -7.515625 C 7.566406 -7.785156 7.703125 -8.140625 7.703125 -8.578125 C 7.703125 -9.023438 7.566406 -9.390625 7.296875 -9.671875 C 7.023438 -9.953125 6.664062 -10.09375 6.21875 -10.09375 Z M 4.34375 -10.09375" transform="translate(474.888 108.843)"/></g></g></g><g fill="#ED5B2D"><g><g><path d="M 9.203125 0 L 8.515625 -2.078125 L 4.0625 -2.078125 L 3.375 0 L 0.15625 0 L 4.46875 -12.4375 L 8.140625 -12.4375 L 12.4375 0 Z M 4.8125 -4.375 L 7.75 -4.375 L 6.28125 -8.796875 Z M 4.8125 -4.375" transform="translate(489.273 108.843)"/></g></g></g><g fill="#ED5B2D"><g><g><path d="M 2.4375 -1.6875 C 1.207031 -2.882812 0.59375 -4.398438 0.59375 -6.234375 C 0.59375 -8.066406 1.207031 -9.582031 2.4375 -10.78125 C 3.675781 -11.976562 5.179688 -12.578125 6.953125 -12.578125 C 8.328125 -12.578125 9.550781 -12.207031 10.625 -11.46875 C 11.695312 -10.738281 12.445312 -9.726562 12.875 -8.4375 L 9.265625 -8.4375 C 8.796875 -9.34375 8.039062 -9.796875 7 -9.796875 C 5.96875 -9.796875 5.15625 -9.472656 4.5625 -8.828125 C 3.96875 -8.179688 3.671875 -7.316406 3.671875 -6.234375 C 3.671875 -5.148438 3.96875 -4.285156 4.5625 -3.640625 C 5.15625 -2.992188 5.96875 -2.671875 7 -2.671875 C 8.039062 -2.671875 8.796875 -3.125 9.265625 -4.03125 L 12.875 -4.03125 C 12.445312 -2.726562 11.695312 -1.710938 10.625 -0.984375 C 9.550781 -0.253906 8.328125 0.109375 6.953125 0.109375 C 5.179688 0.109375 3.675781 -0.488281 2.4375 -1.6875 Z M 2.4375 -1.6875" transform="translate(504.453 108.843)"/></g></g></g><g fill="#ED5B2D"><g><g><path d="M 4.34375 0 L 1.328125 0 L 1.328125 -12.390625 L 4.34375 -12.390625 L 4.34375 -6.953125 L 8.4375 -12.390625 L 12.390625 -12.390625 L 7.296875 -6.203125 L 12.390625 0 L 8.515625 0 L 4.34375 -5.46875 Z M 4.34375 0" transform="translate(520.532 108.843)"/></g></g></g><g fill="#ED5B2D"><g><g><path d="M 1.234375 -4.9375 L 1.234375 -7.453125 L 9 -7.453125 L 9 -4.9375 Z M 1.234375 -4.9375" transform="translate(535.835 108.843)"/></g></g></g><g fill="#ED5B2D"><g><g><path d="M 5.53125 -10.1875 C 5.15625 -10.1875 4.84375 -10.085938 4.59375 -9.890625 C 4.351562 -9.691406 4.234375 -9.398438 4.234375 -9.015625 C 4.234375 -8.640625 4.34375 -8.335938 4.5625 -8.109375 C 4.789062 -7.878906 5.082031 -7.703125 5.4375 -7.578125 C 5.800781 -7.453125 6.203125 -7.332031 6.640625 -7.21875 C 7.085938 -7.113281 7.523438 -6.976562 7.953125 -6.8125 C 8.390625 -6.65625 8.785156 -6.457031 9.140625 -6.21875 C 9.503906 -5.988281 9.796875 -5.660156 10.015625 -5.234375 C 10.242188 -4.804688 10.359375 -4.289062 10.359375 -3.6875 C 10.359375 -2.644531 9.929688 -1.75 9.078125 -1 C 8.222656 -0.25 7.097656 0.125 5.703125 0.125 C 4.316406 0.125 3.195312 -0.207031 2.34375 -0.875 C 1.488281 -1.550781 1.0625 -2.507812 1.0625 -3.75 L 4.265625 -3.75 C 4.347656 -2.757812 4.859375 -2.265625 5.796875 -2.265625 C 6.222656 -2.265625 6.5625 -2.378906 6.8125 -2.609375 C 7.0625 -2.835938 7.1875 -3.128906 7.1875 -3.484375 C 7.1875 -3.835938 7.070312 -4.125 6.84375 -4.34375 C 6.625 -4.5625 6.332031 -4.734375 5.96875 -4.859375 C 5.613281 -4.992188 5.210938 -5.117188 4.765625 -5.234375 C 4.328125 -5.347656 3.890625 -5.484375 3.453125 -5.640625 C 3.023438 -5.804688 2.628906 -6.003906 2.265625 -6.234375 C 1.910156 -6.460938 1.617188 -6.789062 1.390625 -7.21875 C 1.171875 -7.65625 1.0625 -8.164062 1.0625 -8.75 C 1.0625 -9.90625 1.488281 -10.832031 2.34375 -11.53125 C 3.207031 -12.226562 4.304688 -12.578125 5.640625 -12.578125 C 6.972656 -12.578125 8.050781 -12.269531 8.875 -11.65625 C 9.695312 -11.050781 10.128906 -10.097656 10.171875 -8.796875 L 6.890625 -8.796875 C 6.835938 -9.242188 6.691406 -9.585938 6.453125 -9.828125 C 6.210938 -10.066406 5.90625 -10.1875 5.53125 -10.1875 Z M 5.53125 -10.1875" transform="translate(548.667 108.843)"/></g></g></g><g fill="#ED5B2D"><g><g><path d="M 9.125 -12.390625 L 12.140625 -12.390625 L 12.140625 0 L 9.125 0 L 9.125 -5.140625 L 4.34375 -5.140625 L 4.34375 0 L 1.328125 0 L 1.328125 -12.390625 L 4.34375 -12.390625 L 4.34375 -7.4375 L 9.125 -7.4375 Z M 9.125 -12.390625" transform="translate(562.682 108.843)"/></g></g></g><g fill="#ED5B2D"><g><g><path d="M 9.203125 0 L 8.515625 -2.078125 L 4.0625 -2.078125 L 3.375 0 L 0.15625 0 L 4.46875 -12.4375 L 8.140625 -12.4375 L 12.4375 0 Z M 4.8125 -4.375 L 7.75 -4.375 L 6.28125 -8.796875 Z M 4.8125 -4.375" transform="translate(578.744 108.843)"/></g></g></g><g fill="#ED5B2D"><g><g><path d="M 4.34375 -4.8125 L 4.34375 0 L 1.328125 0 L 1.328125 -12.390625 L 6.21875 -12.390625 C 7.65625 -12.390625 8.769531 -12.019531 9.5625 -11.28125 C 10.363281 -10.539062 10.765625 -9.644531 10.765625 -8.59375 C 10.765625 -7.875 10.546875 -7.171875 10.109375 -6.484375 C 9.679688 -5.804688 8.972656 -5.328125 7.984375 -5.046875 L 11.015625 0 L 7.484375 0 L 4.703125 -4.8125 Z M 4.34375 -10.09375 L 4.34375 -7.109375 L 6.21875 -7.109375 C 6.675781 -7.109375 7.035156 -7.242188 7.296875 -7.515625 C 7.566406 -7.785156 7.703125 -8.140625 7.703125 -8.578125 C 7.703125 -9.023438 7.566406 -9.390625 7.296875 -9.671875 C 7.023438 -9.953125 6.664062 -10.09375 6.21875 -10.09375 Z M 4.34375 -10.09375" transform="translate(593.923 108.843)"/></g></g></g><g fill="#ED5B2D"><g><g><path d="M 8.828125 -12.4375 L 8.828125 -10.140625 L 4.34375 -10.140625 L 4.34375 -7.46875 L 8.296875 -7.46875 L 8.296875 -5.171875 L 4.34375 -5.171875 L 4.34375 -2.296875 L 8.828125 -2.296875 L 8.828125 0 L 1.328125 0 L 1.328125 -12.4375 Z M 8.828125 -12.4375" transform="translate(608.309 108.843)"/></g></g></g></svg>